<mxfile host="app.diagrams.net" agent="Mozilla/5.0 (Windows NT 10.0; Win64; x64) AppleWebKit/537.36 (KHTML, like Gecko) Chrome/138.0.0.0 Safari/537.36 OPR/122.0.0.0" version="28.2.5">
  <diagram name="PÃ¡gina-1" id="eC3P_L-lj1VCmn-JV5OG">
    <mxGraphModel dx="1381" dy="760" grid="1" gridSize="10" guides="1" tooltips="1" connect="1" arrows="1" fold="1" page="1" pageScale="1" pageWidth="827" pageHeight="1169" math="0" shadow="0">
      <root>
        <mxCell id="0" />
        <mxCell id="1" parent="0" />
        <mxCell id="wrdZNbvJKTnP5NnuVsGi-5" value="Usuario" style="shape=umlActor;verticalLabelPosition=bottom;verticalAlign=top;html=1;labelPosition=center;align=center;" parent="1" vertex="1">
          <mxGeometry x="80" y="190" width="30" height="60" as="geometry" />
        </mxCell>
        <mxCell id="wrdZNbvJKTnP5NnuVsGi-7" value="V_ProviderForm.tsx" style="html=1;whiteSpace=wrap;fillColor=#ffe6cc;strokeColor=#d79b00;" parent="1" vertex="1">
          <mxGeometry x="200" y="195" width="110" height="50" as="geometry" />
        </mxCell>
        <mxCell id="wrdZNbvJKTnP5NnuVsGi-8" value="C_Providers (route.ts)" style="html=1;whiteSpace=wrap;fillColor=#e1d5e7;strokeColor=#9673a6;" parent="1" vertex="1">
          <mxGeometry x="400" y="195" width="110" height="50" as="geometry" />
        </mxCell>
        <mxCell id="wrdZNbvJKTnP5NnuVsGi-10" value="" style="endArrow=none;dashed=1;html=1;rounded=0;" parent="1" edge="1">
          <mxGeometry width="50" height="50" relative="1" as="geometry">
            <mxPoint x="100" y="720" as="sourcePoint" />
            <mxPoint x="100" y="270" as="targetPoint" />
          </mxGeometry>
        </mxCell>
        <mxCell id="wrdZNbvJKTnP5NnuVsGi-11" value="" style="endArrow=none;dashed=1;html=1;rounded=0;entryX=0.5;entryY=1;entryDx=0;entryDy=0;" parent="1" target="wrdZNbvJKTnP5NnuVsGi-7" edge="1">
          <mxGeometry width="50" height="50" relative="1" as="geometry">
            <mxPoint x="255" y="720" as="sourcePoint" />
            <mxPoint x="300" y="330" as="targetPoint" />
          </mxGeometry>
        </mxCell>
        <mxCell id="wrdZNbvJKTnP5NnuVsGi-15" value="" style="endArrow=none;dashed=1;html=1;rounded=0;entryX=0.5;entryY=1;entryDx=0;entryDy=0;" parent="1" target="wrdZNbvJKTnP5NnuVsGi-8" edge="1">
          <mxGeometry width="50" height="50" relative="1" as="geometry">
            <mxPoint x="456" y="720" as="sourcePoint" />
            <mxPoint x="266" y="330" as="targetPoint" />
          </mxGeometry>
        </mxCell>
        <mxCell id="EEQ0ORQc2KB4gsm6ORqx-14" value="&lt;span style=&quot;font-size: 12px;&quot;&gt;POST /api/providers&lt;/span&gt;" style="html=1;verticalAlign=bottom;endArrow=block;curved=0;rounded=0;" parent="1" edge="1">
          <mxGeometry width="80" relative="1" as="geometry">
            <mxPoint x="260" y="370" as="sourcePoint" />
            <mxPoint x="450" y="370" as="targetPoint" />
            <mxPoint as="offset" />
          </mxGeometry>
        </mxCell>
        <mxCell id="EEQ0ORQc2KB4gsm6ORqx-17" value="INSERT INTO providers (status = pending)" style="html=1;verticalAlign=bottom;endArrow=block;curved=0;rounded=0;" parent="1" edge="1">
          <mxGeometry width="80" relative="1" as="geometry">
            <mxPoint x="460" y="400" as="sourcePoint" />
            <mxPoint x="690" y="400" as="targetPoint" />
            <mxPoint as="offset" />
          </mxGeometry>
        </mxCell>
        <mxCell id="9iasXvsS_VbgWBKqhhfq-13" value="&lt;font style=&quot;font-size: 12px;&quot;&gt;confirmacion&lt;/font&gt;" style="html=1;verticalAlign=bottom;endArrow=open;dashed=1;endSize=8;curved=0;rounded=0;" parent="1" edge="1">
          <mxGeometry relative="1" as="geometry">
            <mxPoint x="690" y="430" as="sourcePoint" />
            <mxPoint x="460" y="430" as="targetPoint" />
          </mxGeometry>
        </mxCell>
        <mxCell id="9iasXvsS_VbgWBKqhhfq-20" value="Acceso a lista de proveedores pendientes" style="html=1;verticalAlign=bottom;endArrow=block;curved=0;rounded=0;" parent="1" edge="1">
          <mxGeometry width="80" relative="1" as="geometry">
            <mxPoint x="250" y="550" as="sourcePoint" />
            <mxPoint x="100" y="550" as="targetPoint" />
            <mxPoint as="offset" />
          </mxGeometry>
        </mxCell>
        <mxCell id="QlAbTPXwtz5cGwqNCX9c-1" value="&quot;Proveedor registrado en espera de validacion&quot;" style="html=1;verticalAlign=bottom;endArrow=open;dashed=1;endSize=8;curved=0;rounded=0;" parent="1" edge="1">
          <mxGeometry relative="1" as="geometry">
            <mxPoint x="450" y="520" as="sourcePoint" />
            <mxPoint x="260" y="520" as="targetPoint" />
          </mxGeometry>
        </mxCell>
        <mxCell id="QlAbTPXwtz5cGwqNCX9c-3" value="" style="endArrow=none;dashed=1;html=1;rounded=0;entryX=0.5;entryY=1;entryDx=0;entryDy=0;" parent="1" edge="1">
          <mxGeometry width="50" height="50" relative="1" as="geometry">
            <mxPoint x="695" y="720" as="sourcePoint" />
            <mxPoint x="695" y="245" as="targetPoint" />
          </mxGeometry>
        </mxCell>
        <mxCell id="QlAbTPXwtz5cGwqNCX9c-4" value="providers" style="html=1;whiteSpace=wrap;fillColor=#d5e8d4;strokeColor=#82b366;" parent="1" vertex="1">
          <mxGeometry x="640" y="195" width="110" height="50" as="geometry" />
        </mxCell>
        <mxCell id="QlAbTPXwtz5cGwqNCX9c-8" value="Proveedor" style="shape=umlActor;verticalLabelPosition=bottom;verticalAlign=top;html=1;labelPosition=center;align=center;" parent="1" vertex="1">
          <mxGeometry x="20" y="190" width="30" height="60" as="geometry" />
        </mxCell>
        <mxCell id="QlAbTPXwtz5cGwqNCX9c-9" value="" style="endArrow=none;dashed=1;html=1;rounded=0;" parent="1" edge="1">
          <mxGeometry width="50" height="50" relative="1" as="geometry">
            <mxPoint x="40" y="720" as="sourcePoint" />
            <mxPoint x="40" y="270" as="targetPoint" />
          </mxGeometry>
        </mxCell>
        <mxCell id="QlAbTPXwtz5cGwqNCX9c-12" value="&lt;span style=&quot;font-size: 12px;&quot;&gt;Completa formulario con datos&lt;/span&gt;" style="html=1;verticalAlign=bottom;endArrow=block;curved=0;rounded=0;" parent="1" edge="1">
          <mxGeometry width="80" relative="1" as="geometry">
            <mxPoint x="40" y="320" as="sourcePoint" />
            <mxPoint x="250" y="320" as="targetPoint" />
            <mxPoint as="offset" />
          </mxGeometry>
        </mxCell>
        <mxCell id="QlAbTPXwtz5cGwqNCX9c-13" value="&lt;span style=&quot;font-size: 12px;&quot;&gt;Evalua proveedor&lt;/span&gt;" style="html=1;verticalAlign=bottom;endArrow=block;curved=0;rounded=0;" parent="1" edge="1">
          <mxGeometry width="80" relative="1" as="geometry">
            <mxPoint x="100" y="590" as="sourcePoint" />
            <mxPoint x="690" y="590" as="targetPoint" />
            <mxPoint as="offset" />
          </mxGeometry>
        </mxCell>
      </root>
    </mxGraphModel>
  </diagram>
</mxfile>
